<svg width="87" height="64" viewBox="0 0 87 64" fill="none" xmlns="http://www.w3.org/2000/svg">
<g clip-path="url(#clip0_6_8)">
<path d="M4.93597 14.037C-2.07438 37.377 -2.25728 55.5374 12.5 66.5L76.5 68.5C94.924 46.3298 84.4277 20.6389 78.1485 9.34048C75.9374 5.36192 72.4694 1.43549 67.9297 1.7651C65.7668 1.92214 63.714 2.81413 61.6775 4.23508C48.9043 13.1474 34.0778 10.3898 20.7726 2.29311C13.1314 -2.35686 7.50907 5.47027 4.93597 14.037Z" fill="white"/>
<path d="M73.8681 15.0407C74.9061 19.5623 70.6602 24.3956 64.3847 25.8362C58.3967 27.2108 51.3305 24.1988 49.7938 19.9918C49.6062 19.9466 49.4132 19.8997 49.215 19.8514C47.297 19.3846 44.8931 18.7995 42.1921 18.6343C39.8028 18.4882 37.4002 18.8307 35.3245 19.2162C35.3136 19.2694 35.3019 19.3232 35.2894 19.3778C34.2514 23.8994 26.7916 27.2768 20.5161 25.8362C14.2406 24.3956 9.99472 19.5623 11.0327 15.0407C12.0089 10.7883 18.2392 12.2374 24.1977 13.6234C24.5748 13.7111 24.9509 13.7986 25.3244 13.8843C26.6739 14.1941 27.9519 14.4156 29.1163 14.6174C31.0553 14.9535 32.5696 15.5833 33.7952 15.7788C34.4383 15.8814 39.0977 15.65 41.9974 15.8357C42.3837 15.8605 42.7691 15.8852 43.1516 15.9086C44.5337 15.9931 45.8306 16.0022 47.0124 16.0105C48.3322 16.0198 49.6297 16.254 50.5645 16.0105C51.4994 15.7671 53.4575 15.0208 55.7845 14.6174C56.9489 14.4156 58.2269 14.1941 59.5764 13.8843C59.95 13.7986 60.326 13.7111 60.7031 13.6234C66.6617 12.2374 72.892 10.7883 73.8681 15.0407Z" fill="black"/>
<path d="M35 33.7914C38.9117 29.3045 42.4606 30.5804 50 35.7914" stroke="black" stroke-width="4" stroke-linecap="round"/>
<path d="M21.3899 15.6873C22.6279 16.1564 23.8056 15.8815 24.7983 16.6397L21.2707 23.6748C19.7814 23.611 19.01 23.3973 17.8005 22.5499L21.3899 15.6873Z" fill="white"/>
<path d="M62.9557 14.7119C64.1937 15.1809 66.1791 13.7804 67.1719 14.5385L62.4847 23.7894C60.9954 23.7257 59.4852 23.8548 58.2757 23.0074L62.9557 14.7119Z" fill="white"/>
</g>
<defs>
<clipPath id="clip0_6_8">
<rect width="87" height="64" fill="white"/>
</clipPath>
</defs>
</svg>
