<svg width="100" height="100" viewBox="0 0 100 100" fill="none" xmlns="http://www.w3.org/2000/svg">
<g clip-path="url(#clip0_303_6)">
<path fill-rule="evenodd" clip-rule="evenodd" d="M15 30.5064V70.9314C15 74.0701 16.2297 77.0839 18.4255 79.3266L35.1372 96.3952C37.3945 98.7007 40.4851 100 43.7117 100H57.2883C60.5149 100 63.6055 98.7007 65.8628 96.3952L82.5745 79.3266C84.7703 77.0839 86 74.0701 86 70.9314V57.9741C86 54.7777 84.7247 51.7134 82.457 49.4607L36.0762 3.38698C34.8143 2.1335 32.6667 3.02727 32.6667 4.80588V42.7153L18.382 29.0607C17.1096 27.8444 15 28.7463 15 30.5064ZM33 68.3334V59.6667L39.4815 53H42.7222L50.5 61L58.2778 53H61.5185L68 59.6667V68.3334L51.7963 85H49.2037L33 68.3334Z" fill="white"/>
</g>
<defs>
<clipPath id="clip0_303_6">
<rect width="100" height="100" fill="white"/>
</clipPath>
</defs>
</svg>
