<svg width="87" height="63" viewBox="0 0 87 63" fill="none" xmlns="http://www.w3.org/2000/svg">
<g clip-path="url(#clip0_1_2)">
<path fill-rule="evenodd" clip-rule="evenodd" d="M12.5 65.5C-2.25729 54.5374 -2.07439 36.377 4.93596 13.037C7.50906 4.47027 13.1314 -3.35686 20.7726 1.29311C34.0777 9.38978 48.9043 12.1474 61.6775 3.23508C63.714 1.81413 65.7668 0.922141 67.9296 0.765102C72.4694 0.435487 75.9374 4.36192 78.1485 8.34048C84.4277 19.6389 94.924 45.3298 76.5 67.4999L12.5 65.5ZM10.9321 20.1785C11.8952 24.7167 15.7877 27.7352 19.6263 26.9206C23.465 26.106 26.3193 20.429 25.3562 15.8908C24.3932 11.3527 20.5006 8.33419 16.662 9.1488C12.8233 9.96341 9.96905 15.6404 10.9321 20.1785ZM58.9321 20.1785C59.8952 24.7167 63.7877 27.7352 67.6263 26.9206C71.465 26.106 74.3193 20.429 73.3562 15.8908C72.3932 11.3527 68.5006 8.33419 64.662 9.1488C60.8233 9.96341 57.9691 15.6404 58.9321 20.1785ZM33.1679 24.1978C33.611 23.1859 34.7904 22.7249 35.8022 23.1679C38.8118 24.4858 40.975 25.1824 42.9902 25.4493C44.9826 25.7132 46.9559 25.5734 49.6048 25.0394C50.6876 24.8212 51.7423 25.522 51.9606 26.6048C52.1788 27.6876 51.478 28.7423 50.3952 28.9606C47.4882 29.5466 45.0429 29.7561 42.465 29.4146C39.9098 29.0762 37.3509 28.2128 34.1978 26.8321C33.186 26.389 32.7249 25.2096 33.1679 24.1978Z" fill="white"/>
</g>
<defs>
<clipPath id="clip0_1_2">
<rect width="87" height="63" fill="white"/>
</clipPath>
</defs>
</svg>
