<svg width="15" height="177" viewBox="0 0 15 177" fill="none" xmlns="http://www.w3.org/2000/svg">
<g clip-path="url(#clip0_10_45)">
<path d="M10.7984 142.73V150.26C10.808 150.372 10.8129 150.486 10.8129 150.6C10.8129 150.715 10.808 150.828 10.7984 150.94V151.034H10.7893C10.5735 153.002 8.90514 154.534 6.87905 154.534C6.87422 154.534 6.86939 154.534 6.86457 154.534V154.543C4.69862 154.551 2.99089 152.471 2.99091 150.26C2.99093 148.05 4.85095 146.666 6.87905 146.666L6.87903 146.664C9.04498 146.656 10.7984 144.898 10.7984 142.73Z" fill="white"/>
<path d="M10.7984 120.73V128.26C10.808 128.372 10.8129 128.486 10.8129 128.6C10.8129 128.715 10.808 128.828 10.7984 128.94V129.034H10.7893C10.5735 131.002 8.90513 132.534 6.87904 132.534C6.87421 132.534 6.86939 132.534 6.86456 132.534V132.543C4.69862 132.551 2.94519 134.309 2.94519 136.477V128.173H2.96817C3.1813 126.201 4.85094 124.666 6.87904 124.666L6.87903 124.664C9.04498 124.656 10.7984 122.898 10.7984 120.73Z" fill="white"/>
<path d="M10.7984 98.73V106.26C10.808 106.372 10.8129 106.486 10.8129 106.6C10.8129 106.715 10.808 106.828 10.7984 106.94V107.034H10.7893C10.5735 109.002 8.90513 110.534 6.87904 110.534C6.87421 110.534 6.86939 110.534 6.86456 110.534V110.543C4.69862 110.551 2.94519 112.309 2.94519 114.477V106.173H2.96817C3.1813 104.201 4.85094 102.666 6.87904 102.666L6.87903 102.664C9.04498 102.656 10.7984 100.898 10.7984 98.73Z" fill="white"/>
<path d="M10.7984 76.73V84.2603C10.808 84.3723 10.8129 84.4858 10.8129 84.6003C10.8129 84.7149 10.808 84.8283 10.7984 84.9404V85.0339H10.7893C10.5735 87.0025 8.90513 88.5342 6.87904 88.5342C6.87421 88.5342 6.86939 88.5342 6.86456 88.5342V88.5428C4.69862 88.5506 2.94519 90.3088 2.94519 92.4766V84.1727H2.96817C3.1813 82.2012 4.85094 80.6665 6.87904 80.6665L6.87903 80.6638C9.04498 80.656 10.7984 78.8978 10.7984 76.73Z" fill="white"/>
<path d="M10.7984 54.73V62.2603C10.808 62.3723 10.8129 62.4858 10.8129 62.6003C10.8129 62.7149 10.808 62.8283 10.7984 62.9404V63.0339H10.7893C10.5735 65.0025 8.90513 66.5342 6.87904 66.5342C6.87421 66.5342 6.86939 66.5342 6.86456 66.5342V66.5428C4.69862 66.5506 2.94519 68.3088 2.94519 70.4766V62.1727H2.96817C3.1813 60.2012 4.85094 58.6665 6.87904 58.6665L6.87903 58.6638C9.04498 58.656 10.7984 56.8978 10.7984 54.73Z" fill="white"/>
<path d="M10.7984 32.73V40.2603C10.808 40.3723 10.8129 40.4858 10.8129 40.6003C10.8129 40.7149 10.808 40.8283 10.7984 40.9404V41.0339H10.7893C10.5735 43.0025 8.90513 44.5342 6.87904 44.5342C6.87421 44.5342 6.86939 44.5342 6.86456 44.5342V44.5428C4.69862 44.5506 2.94519 46.3088 2.94519 48.4766V40.1727H2.96817C3.1813 38.2012 4.85094 36.6665 6.87904 36.6665L6.87903 36.6638C9.04498 36.656 10.7984 34.8978 10.7984 32.73Z" fill="white"/>
<path d="M10.7984 10.73V18.2603C10.808 18.3723 10.8129 18.4858 10.8129 18.6003C10.8129 18.7149 10.808 18.8283 10.7984 18.9404V19.0339H10.7893C10.5735 21.0025 8.90513 22.5342 6.87904 22.5342C6.87421 22.5342 6.86939 22.5342 6.86456 22.5342V22.5428C4.69862 22.5506 2.94519 24.3088 2.94519 26.4766V18.1727H2.96817C3.1813 16.2012 4.85094 14.6665 6.87904 14.6665L6.87903 14.6638C9.04498 14.656 10.7984 12.8978 10.7984 10.73Z" fill="white"/>
<path d="M10.7984 131.73V139.26C10.808 139.372 10.8129 139.486 10.8129 139.6C10.8129 139.715 10.808 139.828 10.7984 139.94V140.034H10.7893C10.5735 142.002 8.90513 143.534 6.87904 143.534C6.87421 143.534 6.86939 143.534 6.86456 143.534V143.543C4.69862 143.551 2.94519 145.309 2.94519 147.477V139.173H2.96817C3.1813 137.201 4.85094 135.666 6.87904 135.666L6.87903 135.664C9.04498 135.656 10.7984 133.898 10.7984 131.73Z" fill="white"/>
<path d="M10.7984 109.73V117.26C10.808 117.372 10.8129 117.486 10.8129 117.6C10.8129 117.715 10.808 117.828 10.7984 117.94V118.034H10.7893C10.5735 120.002 8.90513 121.534 6.87904 121.534C6.87421 121.534 6.86939 121.534 6.86456 121.534V121.543C4.69862 121.551 2.94519 123.309 2.94519 125.477V117.173H2.96817C3.1813 115.201 4.85094 113.666 6.87904 113.666L6.87903 113.664C9.04498 113.656 10.7984 111.898 10.7984 109.73Z" fill="white"/>
<path d="M10.7984 87.73V95.2603C10.808 95.3723 10.8129 95.4858 10.8129 95.6003C10.8129 95.7149 10.808 95.8283 10.7984 95.9404V96.0339H10.7893C10.5735 98.0025 8.90513 99.5342 6.87904 99.5342C6.87421 99.5342 6.86939 99.5342 6.86456 99.5342V99.5428C4.69862 99.5506 2.94519 101.309 2.94519 103.477V95.1727H2.96817C3.1813 93.2012 4.85094 91.6665 6.87904 91.6665L6.87903 91.6638C9.04498 91.656 10.7984 89.8978 10.7984 87.73Z" fill="white"/>
<path d="M10.7984 65.73V73.2603C10.808 73.3723 10.8129 73.4858 10.8129 73.6003C10.8129 73.7149 10.808 73.8283 10.7984 73.9404V74.0339H10.7893C10.5735 76.0025 8.90513 77.5342 6.87904 77.5342C6.87421 77.5342 6.86939 77.5342 6.86456 77.5342V77.5428C4.69862 77.5506 2.94519 79.3088 2.94519 81.4766V73.1727H2.96817C3.1813 71.2012 4.85094 69.6665 6.87904 69.6665L6.87903 69.6638C9.04498 69.656 10.7984 67.8978 10.7984 65.73Z" fill="white"/>
<path d="M10.7984 43.73V51.2603C10.808 51.3723 10.8129 51.4858 10.8129 51.6003C10.8129 51.7149 10.808 51.8283 10.7984 51.9404V52.0339H10.7893C10.5735 54.0025 8.90513 55.5342 6.87904 55.5342C6.87421 55.5342 6.86939 55.5342 6.86456 55.5342V55.5428C4.69862 55.5506 2.94519 57.3088 2.94519 59.4766V51.1727H2.96817C3.1813 49.2012 4.85094 47.6665 6.87904 47.6665L6.87903 47.6638C9.04498 47.656 10.7984 45.8978 10.7984 43.73Z" fill="white"/>
<path d="M10.7984 21.73V29.2603C10.808 29.3723 10.8129 29.4858 10.8129 29.6003C10.8129 29.7149 10.808 29.8283 10.7984 29.9404V30.0339H10.7893C10.5735 32.0025 8.90513 33.5342 6.87904 33.5342C6.87421 33.5342 6.86939 33.5342 6.86456 33.5342V33.5428C4.69862 33.5506 2.94519 35.3088 2.94519 37.4766V29.1727H2.96817C3.1813 27.2012 4.85094 25.6665 6.87904 25.6665L6.87903 25.6638C9.04498 25.656 10.7984 23.8978 10.7984 21.73Z" fill="white"/>
<path d="M10.7984 -0.27002V7.26026C10.808 7.37235 10.8129 7.48577 10.8129 7.60035C10.8129 7.71492 10.808 7.82834 10.7984 7.94043V8.03388H10.7893C10.5735 10.0025 8.90513 11.5342 6.87904 11.5342C6.87421 11.5342 6.86939 11.5342 6.86456 11.5342V11.5428C4.69862 11.5506 2.94519 13.3088 2.94519 15.4766V7.17268H2.96817C3.1813 5.20124 4.85094 3.66649 6.87904 3.66649L6.87903 3.66381C9.04498 3.656 10.7984 1.89776 10.7984 -0.27002Z" fill="white"/>
<path d="M6.79015 154.589C3.45508 158.486 2.5549 160.264 2.42618 172.768" stroke="white" stroke-linecap="round"/>
<path d="M6.79029 154.589C3.45521 158.486 0.546843 153.535 0.418121 166.039" stroke="white" stroke-linecap="round"/>
<path d="M6.88779 154.589C8.2736 158.851 9.31922 163.74 8.63215 176.514" stroke="white" stroke-linecap="round"/>
<path d="M6.79007 154.589C5.38545 159.431 5.41352 164.482 6.18734 176.526" stroke="white" stroke-linecap="round"/>
<path d="M6.88781 154.589C8.93216 154.877 10.8871 155.933 11.8141 173.484" stroke="white" stroke-linecap="round"/>
<path d="M6.88782 154.589C8.93217 154.877 14.0722 156.15 13.1686 166.102" stroke="white" stroke-linecap="round"/>
</g>
<defs>
<clipPath id="clip0_10_45">
<rect width="15" height="177" fill="white"/>
</clipPath>
</defs>
</svg>
